<?xml version="1.0" encoding="UTF-8"?>
<svg id="Camada_2" data-name="Camada 2" xmlns="http://www.w3.org/2000/svg" viewBox="0 0 626.18 101.81">
  <defs>
    <style>
      .cls-1 {
        fill: #9602c7;
      }
    </style>
  </defs>
  <g id="Camada_1-2" data-name="Camada 1">
    <g>
      <path class="cls-1" d="M62.31,27.63c1.04,5.39,1.51,11.24,1.42,17.53-.1,6.29-1.09,12.66-2.98,19.09-1.61,5.11-3.6,9.96-5.96,14.55-2.37,4.59-5.68,9.16-9.94,13.7-2.56,1.89-5.49,3.6-8.8,5.11-3.31,1.51-6.39,2.46-9.23,2.84-2.27,0-4.4.05-6.39.14-1.7.09-3.41.21-5.11.36-1.7.14-2.98.31-3.83.5-1.7.28-3.26.4-4.68.36-1.42-.05-2.37-.36-2.84-.92-.19-.57-.59-.78-1.21-.64-.62.14-1.11.21-1.49.21-.19,0-.4-.14-.64-.43-.24-.28-.35-.52-.35-.71v-.71c-.28-.19-.35-.43-.21-.71s.21-.8.21-1.56c.09-.09.19-.24.28-.43.19-.38.28-.8.28-1.28,0-.19.54-2.46,1.63-6.81,1.09-4.35,2.67-9.98,4.76-16.89,1.7-5.58,3.26-11.21,4.68-16.89,1.42-5.68,2.67-11.19,3.76-16.54,1.09-5.34,1.94-10.43,2.56-15.26.61-4.83.97-9.23,1.06-13.2.09-.95.24-1.8.43-2.56.19-.66.4-1.28.64-1.84.23-.57.5-.85.78-.85.19-.09.94-.16,2.27-.21,1.32-.05,2.74-.17,4.26-.36,1.7-.09,3.64-.24,5.82-.43,1.61-.09,3.12-.24,4.54-.43,1.23-.19,2.36-.33,3.41-.43,1.04-.09,1.8-.14,2.27-.14.57-.09,1.18-.14,1.85-.14,1.23,0,2.32.38,3.26,1.14.57.57,1.42,1.54,2.56,2.91,1.14,1.37,2.36,3.1,3.69,5.18,1.32,2.08,2.65,4.52,3.97,7.31,1.32,2.79,2.41,5.94,3.26,9.44ZM43.01,54.18c.57-2.27.94-4.87,1.14-7.81.19-2.93.16-5.91-.07-8.94-.24-3.03-.76-5.91-1.56-8.66-.81-2.74-1.92-4.97-3.34-6.67-.19.57-.55,1.94-1.06,4.12-.52,2.18-1.16,4.9-1.92,8.16-.76,3.27-1.61,6.93-2.56,11-.95,4.07-1.89,8.28-2.84,12.63-1.04,4.26-2.04,8.4-2.98,12.42-.95,4.02-1.8,7.59-2.56,10.72l-2.56,10.22c2.84-1.51,5.54-3.88,8.09-7.1,2.18-2.74,4.42-6.53,6.74-11.36,2.32-4.83,4.14-11.07,5.46-18.74Z"/>
      <path class="cls-1" d="M87.3,3.07c.66-.09,1.32-.19,1.99-.28.94-.09,2.03-.33,3.26-.71.85-.47,2.51-.85,4.97-1.14,2.46-.28,5.35-.5,8.66-.64,3.31-.14,6.84-.23,10.58-.28,3.74-.05,7.33-.02,10.79.07,3.45.1,6.58.24,9.37.43,2.79.19,4.85.43,6.17.71.09.19.14.52.14.99s-.07,1.06-.21,1.77c-.14.71-.31,1.68-.5,2.91-.28,1.33-.5,2.32-.64,2.98-.14.66-.26,1.18-.35,1.56-.1.38-.19.69-.28.92-.1.24-.28.54-.57.92-.19,0-.26.17-.21.5.05.33.07.69.07,1.06,0,.47.05.99.14,1.56v.57c0,.19-.05.38-.14.57-.1.19-.19.38-.28.57-.48,0-.73.02-.78.07-.05.05-.07.21-.07.5-.19.28-.35.52-.5.71-.14.19-.88.31-2.2.35-1.33.05-3.5.05-6.53,0-3.03-.05-7.48-.21-13.34-.5h-3.69c-1.42,0-2.84.02-4.26.07-1.42.05-2.65.1-3.69.14-1.04.05-1.61.12-1.7.21,0,.19-.14,1.23-.43,3.12-.28,1.89-.62,3.93-.99,6.1l-1.42,8.8,6.53-.28c.76.19,1.94.26,3.55.21,1.61-.05,3.26-.07,4.97-.07s3.34.02,4.9.07c1.56.05,2.67.21,3.34.5,1.89.47,2.98.92,3.26,1.35.28.43.43.78.43,1.06-.19.19-.31.59-.35,1.21-.05.62-.12,1.33-.21,2.13-.1.81-.14,1.56-.14,2.27v1.49c0,.47-.17.9-.5,1.28-.33.38-.64.76-.92,1.14-.28,0-.45.24-.5.71-.05.47-.07.99-.07,1.56s-.21,1.42-.64,2.55-1.35,1.8-2.77,1.99c-.57.19-1.59.33-3.05.43-1.47.1-3.15.14-5.04.14s-3.83-.02-5.82-.07c-1.99-.05-3.83-.05-5.54,0-1.7.05-3.12.12-4.26.21-1.14.1-1.75.28-1.85.57-.19.47-.55,1.87-1.06,4.19-.52,2.32-1.11,4.8-1.77,7.45-.76,3.12-1.56,6.58-2.41,10.36.09,0,.66.02,1.7.07,1.04.05,2.27.12,3.69.21,1.42.1,2.91.17,4.47.21,1.56.05,2.91.07,4.05.07,1.04.19,2.58.33,4.61.43,2.03.09,4.07.21,6.1.35,2.03.14,3.88.24,5.54.28,1.65.05,2.63.07,2.91.07s.16.35-.35,1.06c-.52.71-.78,1.35-.78,1.92,0,.47-.1,1.42-.28,2.84-.19,1.42-.47,2.6-.85,3.55-.28.85-.47,1.51-.57,1.99-.1.47-.28,1.18-.57,2.13-.47.85-.71,1.61-.71,2.27s-.17,1.23-.5,1.7c-.33.47-.99.83-1.99,1.06-.99.24-2.67.26-5.04.07-2.56,0-5.21-.05-7.95-.14-2.37-.09-4.99-.16-7.88-.21-2.89-.05-5.7-.07-8.45-.07-4.35-.38-8.02-.47-11-.28-2.98.19-4.71.28-5.18.28-.38,0-.76-.09-1.14-.28-.28-.19-.55-.38-.78-.57-.24-.19-.35-.52-.35-.99.19-.28.09-.57-.28-.85-.38-.28-.76-.43-1.14-.43-.19,0-.38-.33-.57-.99-.19-.66-.14-1.47.14-2.41.28-.38.43-.76.43-1.14v-1.14c0-.28.12-.5.35-.64.24-.14.35-.54.35-1.21.85-3.22,1.73-7.03,2.63-11.43.9-4.4,1.82-9.06,2.77-13.98.76-3.22,1.54-6.53,2.34-9.94.8-3.41,1.54-6.86,2.2-10.36.57-3.22,1.11-6.48,1.63-9.79.52-3.31,1.16-6.43,1.92-9.37.38-3.22.76-6.17,1.14-8.87.38-2.7.76-4.99,1.14-6.88.38-1.89.8-3.34,1.28-4.33.47-.99.99-1.44,1.56-1.35Z"/>
      <path class="cls-1" d="M135.7,69.93c0-.28.05-.57.14-.85.19-.57.61-.99,1.28-1.28h3.83c2.65,0,4.9.02,6.74.07,1.85.05,3.76.17,5.75.36,1.23,0,1.8.21,1.7.64-.1.43,0,.78.28,1.06,0,.19.26,1.3.78,3.34.52,2.04,1.21,4.38,2.06,7.03.85,2.65,1.82,5.28,2.91,7.88,1.09,2.6,2.2,4.52,3.34,5.75.28.19,1.32-.21,3.12-1.21,1.8-.99,3.9-2.48,6.32-4.47,2.41-1.99,4.85-4.47,7.31-7.45,2.46-2.98,4.52-6.36,6.17-10.15,1.65-3.78,2.63-7.9,2.91-12.35.28-4.45-.57-9.13-2.56-14.05-.1.09-.19.14-.28.14-.1.1-.21.14-.35.14s-.26.1-.35.28c-.28.19-1.3.85-3.05,1.99-1.75,1.14-3.71,2.37-5.89,3.69-2.18,1.33-4.33,2.53-6.46,3.62-2.13,1.09-3.71,1.63-4.75,1.63-.76,0-1.85.1-3.27.28-1.42.19-2.93.28-4.54.28-1.23-.28-2.41-.45-3.55-.5-1.14-.05-2.27-.07-3.41-.07h-8.09c-.66,0-1.23-.14-1.7-.43-.95-.28-1.89-.9-2.84-1.84-1.14-1.8-1.8-3.57-1.99-5.32-.19-1.75.23-3.74,1.28-5.96,1.04-2.22,2.77-4.87,5.18-7.95,2.41-3.07,5.65-6.84,9.72-11.29,1.42-1.51,3.45-3.45,6.1-5.82,2.65-2.36,5.25-4.68,7.81-6.96,3.03-2.65,6.25-5.39,9.65-8.23.28-.28.66-.57,1.14-.85.47-.19,1.06-.38,1.77-.57.71-.19,1.68-.28,2.91-.28h15.47c1.7,0,3.45.64,5.25,1.92,1.8,1.28,3.26,2.77,4.4,4.47.19,1.04.31,2.13.35,3.26.05,1.14.07,2.13.07,2.98,0,1.99-.26,3.97-.78,5.96-.52,1.99-1.14,3.76-1.85,5.32s-1.37,2.89-1.99,3.97c-.62,1.09-.97,1.68-1.06,1.77-.1,0-.19.05-.28.14-.1.1-.14.43-.14.99,0,.28-.1.43-.28.43s-.28-.14-.28-.43c-.38-.57-.78-.69-1.21-.36-.43.33-.64.64-.64.92h-1.14c-.19,0-.43.12-.71.35-.28.24-.62.36-.99.36-.28,0-.66.07-1.14.21-.47.14-.85.07-1.14-.21-.57-.38-1.51-.73-2.84-1.06-1.33-.33-2.7-.21-4.12.35-.76.38-1.47.43-2.13.14-.66-.28-1.28-.71-1.85-1.28-.47-.28-.73-1.02-.78-2.2-.05-1.18.02-2.15.21-2.91.85-1.42,1.58-2.7,2.2-3.83.61-1.14,1.06-2.7,1.35-4.68,0-.28-.59-.02-1.77.78-1.18.8-2.7,1.96-4.54,3.48-1.85,1.51-3.9,3.34-6.17,5.46s-4.42,4.33-6.46,6.6c-2.04,2.27-3.88,4.59-5.54,6.96-1.66,2.37-2.82,4.54-3.48,6.53l.99-.57c.09-.19.85-.8,2.27-1.84,1.42-1.04,3.15-2.15,5.18-3.34,2.03-1.18,4.31-2.25,6.81-3.19,2.51-.94,4.99-1.42,7.45-1.42,5.2.28,9.37.52,12.49.71,3.12.19,5.68.71,7.67,1.56,3.12,1.14,5.58,3.38,7.38,6.74,1.8,3.36,2.55,8.35,2.27,14.98-.28,3.69-1.21,7.62-2.77,11.78-1.56,4.17-3.79,8.14-6.67,11.92-2.89,3.79-6.41,7.19-10.58,10.22-4.17,3.03-8.94,5.25-14.34,6.67-.85.38-1.89.61-3.12.71-1.14.19-2.58.24-4.33.14-1.75-.09-4-.38-6.74-.85-.76-.19-1.66-.31-2.7-.35-1.04-.05-2.08-.12-3.12-.21-1.14-.09-2.32-.14-3.55-.14-2.27-.09-4.5-1.18-6.67-3.26-1.89-1.8-3.83-4.75-5.82-8.87-1.99-4.12-3.74-10.15-5.25-18.1Z"/>
      <path class="cls-1" d="M262.88.09c8.71.28,14.88.59,18.52.92,3.64.33,5.46.64,5.46.92-.1.19-.19.33-.28.43-.19.28-.38.43-.57.43-.28.28-.33.62-.14.99l.28.57c.28.28.33,1.4.14,3.34-.19,1.94-.66,3.86-1.42,5.75,0,1.7-.05,3.26-.14,4.68-.1,1.42-.19,2.6-.28,3.55,0,.28-.24.43-.71.43h-.71c-1.51-.28-2.79-.45-3.83-.5-1.04-.05-2.11-.05-3.19,0-1.09.05-2.32.12-3.69.21-1.37.09-3.15.14-5.32.14-1.42,0-2.63.02-3.62.07-.99.05-1.77.12-2.34.21-.76.09-1.33.14-1.7.14-.57,0-1.06.66-1.49,1.99-.43,1.33-.85,3.08-1.28,5.25-.43,2.18-.85,4.73-1.28,7.67-.43,2.93-.97,5.96-1.63,9.08-.95,4.83-1.94,9.84-2.98,15.05-1.04,5.21-2.04,10.13-2.98,14.76-.95,4.64-1.77,8.83-2.48,12.56-.71,3.74-1.21,6.6-1.49,8.59-.19.38-.35.66-.5.85-.14.19-.26.38-.35.57-.19.19-.28.33-.28.43-.19.76-.4,1.21-.64,1.35-.24.14-.45.21-.64.21-.38,0-.85-.1-1.42-.28-.57-.19-.99-.28-1.28-.28-.47.28-.99.36-1.56.21-.57-.14-1.14-.21-1.7-.21-.1-.09-.5-.16-1.21-.21-.71-.05-1.54-.07-2.48-.07s-1.92.02-2.91.07c-.99.05-1.82.12-2.48.21-1.8.28-2.86.31-3.19.07-.33-.24-.55-.59-.64-1.06-.19-.47-.31-.87-.35-1.21-.05-.33-.07-.64-.07-.92,0-.38.05-.66.14-.85-.1-.57.02-1.7.35-3.41.33-1.7.73-3.6,1.21-5.68.47-2.08.99-4.21,1.56-6.39.57-2.18,1.09-4.07,1.56-5.68.76-3.12,1.44-6.39,2.06-9.79.61-3.41,1.16-6.86,1.63-10.36.76-3.59,1.35-7.05,1.77-10.36.43-3.31.78-6.29,1.06-8.94.38-3.12.66-6.01.85-8.66,0-.19.05-.52.14-.99.09-.47.09-.95,0-1.42-.1-.47-.31-.83-.64-1.06-.33-.24-.92-.21-1.77.07-.76.28-2.01.35-3.76.21-1.75-.14-3.53-.21-5.32-.21-1.51-.28-2.46-.71-2.84-1.28-.28-.28-.38-.57-.28-.85.19-1.14.33-2.22.43-3.27.09-.94.16-1.89.21-2.84.05-.94.07-1.8.07-2.55-.1-1.61-.1-3.05,0-4.33.09-1.28.24-2.39.43-3.34.19-1.04.33-1.99.43-2.84h.57c.66-.28,1.18-.45,1.56-.5.38-.05.76-.07,1.14-.07,1.61-.28,3.78-.52,6.53-.71,2.74-.19,5.84-.35,9.3-.5,3.45-.14,7.12-.24,11-.28,3.88-.05,7.71-.07,11.5-.07Z"/>
      <path class="cls-1" d="M344.08,6.2c.76.38,1.04.66.85.85-.1.09-.28.19-.57.28-.1.1-.19.14-.28.14-.19.19-.28.33-.28.43.76.57,1.02,1.21.78,1.92-.24.71-.45,1.3-.64,1.77-.47,1.42-.64,2.34-.5,2.77.14.43-.07,1.11-.64,2.06,0,.57-.28.95-.85,1.14-.28.1-.52.14-.71.14.09.28.28,1.85.57,4.68.28,2.84.61,6.39.99,10.65.38,4.26.76,8.97,1.14,14.12.38,5.16.71,10.25.99,15.26.19,4.45.31,8.75.35,12.92.05,4.17.02,7.83-.07,11-.1,3.17-.21,5.75-.35,7.74-.14,1.99-.26,3.03-.35,3.12-.1,1.89-.28,3-.57,3.34-.28.33-.52.5-.71.5-.28,0-.88-.07-1.77-.21-.9-.14-1.49-.07-1.77.21-.19,0-.5-.02-.92-.07-.43-.05-1.4-.21-2.91-.5-.95-.09-1.97-.12-3.05-.07-1.09.05-2.11.12-3.05.21-1.14.09-2.27.24-3.41.43-.85,0-1.35-.07-1.49-.21-.14-.14-.31-.59-.5-1.35-.47-.57-.73-1.02-.78-1.35-.05-.33-.12-.64-.21-.92v-.71c0-.28.09-.8.28-1.56-.1-.09-.14-.33-.14-.71v-2.98c-1.61,0-3.26-.05-4.97-.14-1.42-.09-3.03-.16-4.83-.21-1.8-.05-3.5-.07-5.11-.07-1.33-.19-2.44-.26-3.34-.21-.9.05-1.68.07-2.34.07-.76.09-1.42.14-1.99.14s-.92.21-1.06.64-.45,1.44-.92,3.05c-.28.85-.52,1.61-.71,2.27-.19.66-.38,1.23-.57,1.7-.19.57-.33,1.09-.43,1.56-.47.47-.99.57-1.56.28-.57-.28-1.66-.57-3.26-.85-1.61,0-2.93-.09-3.97-.28-1.04-.19-2.51-.28-4.4-.28-.76-.19-1.54-.28-2.34-.28s-1.49-.05-2.06-.14c-.76,0-1.42-.05-1.99-.14-.47,0-.66-.12-.57-.36.09-.23.09-.5,0-.78-.28-.28-.43-.76-.43-1.42,0-.28.05-.57.14-.85,0-.09.4-1.58,1.21-4.47.8-2.89,1.89-6.6,3.26-11.14,1.37-4.54,2.89-9.65,4.54-15.33,1.65-5.68,3.34-11.45,5.04-17.32,1.51-5.2,2.96-10.29,4.33-15.26,1.37-4.97,2.58-9.44,3.62-13.41,1.04-3.97,1.87-7.26,2.48-9.87.61-2.6.92-4.19.92-4.75.38-1.32.76-1.99,1.14-1.99h5.54c-.1-.09-.05-.24.14-.43.09,0,.19-.05.28-.14,1.61-.28,3.43-.45,5.46-.5,2.03-.05,4-.07,5.89-.07,1.32-.19,2.65-.19,3.97,0,1.32.19,2.93.47,4.83.85.47.1.9.14,1.28.14s1.47.19,3.26.57c1.04.28,2.03.5,2.98.64.94.14,1.8.26,2.56.35.85.1,1.65.14,2.41.14.47,0,.71.19.71.57,0,.19-.05.33-.14.43l-.28.71c.47.19.76.33.85.43.09.09.19.14.28.14,0,.1.05.19.14.28.09.09.16.19.21.28.05.09.16.24.35.43ZM321.51,71.64c-.19-6.53-.4-12.23-.64-17.1-.24-4.87-.52-9.18-.85-12.92-.33-3.74-.73-7.03-1.21-9.87-.47-2.84-.99-5.54-1.56-8.09-.1-.19-.14,0-.14.57,0,.28-.05.62-.14.99-.57,2.46-1.23,4.97-1.99,7.52-.66,2.18-1.4,4.68-2.2,7.52-.8,2.84-1.63,5.68-2.48,8.52-.76,2.93-1.54,5.73-2.34,8.38-.81,2.65-1.54,5.02-2.2,7.1-.76,2.46-1.51,4.73-2.27,6.81h.57c1.99.19,3.97.33,5.96.43,1.7.19,3.57.31,5.61.35,2.03.05,3.9.17,5.61.35.38.28.47.1.28-.57Z"/>
      <path class="cls-1" d="M400.86.8c4.07,1.33,7.17,3.88,9.3,7.67,2.13,3.79,3.5,8.26,4.12,13.41.61,5.16.57,10.79-.14,16.89-.71,6.1-1.77,12.14-3.19,18.1-.66,2.37-1.47,4.83-2.41,7.38-.95,2.55-1.89,4.97-2.84,7.24-.95,2.27-1.85,4.33-2.7,6.17-.85,1.84-1.56,3.19-2.13,4.04.57,1.23,1.14,2.48,1.7,3.76.57,1.28,1.09,2.46,1.56,3.55.47,1.09.9,2.04,1.28,2.84.38.8.66,1.35.85,1.63.09.28.19.59.28.92.09.33.14.69.14,1.07v1.13c-.19.76-.76,1.4-1.7,1.92-.95.52-1.94.78-2.98.78-.28.19-.88.4-1.77.64-.9.24-1.73.36-2.48.36-.47.28-.85.52-1.14.71-.28.19-.95.28-1.99.28-.85,0-1.54-.19-2.06-.57-.52-.38-.88-.71-1.06-.99-.19-.66-.43-1.28-.71-1.84-.19-.47-.43-1.02-.71-1.63-.28-.61-.57-1.21-.85-1.77-2.18,1.33-4.52,2.55-7.03,3.69-2.51,1.14-4.57,1.85-6.17,2.13-1.14.09-2.22.19-3.26.28-.85.09-1.7.16-2.56.21-.85.05-1.37.07-1.56.07-1.33,0-2.82-.19-4.47-.57-1.66-.38-3.15-1.09-4.47-2.13-2.18-1.89-3.9-4.52-5.18-7.88-1.28-3.36-2.06-7.4-2.34-12.14-.38-5.58-.05-11.8.99-18.67,1.04-6.86,2.48-13.53,4.33-20.01,1.85-6.48,3.9-12.37,6.17-17.67,2.27-5.3,4.45-9.13,6.53-11.5,1.89-2.18,3.48-3.85,4.76-5.04,1.28-1.18,2.86-1.77,4.75-1.77.85-.09,1.7-.24,2.56-.43.76-.19,1.56-.38,2.41-.57.85-.19,1.65-.43,2.41-.71,2.46-.47,4.71-.83,6.74-1.07,2.03-.23,4.38-.21,7.03.07ZM390.35,65.82c.09-.19.47-1.25,1.14-3.19.66-1.94,1.4-4.42,2.2-7.45.8-3.03,1.54-6.48,2.2-10.36.66-3.88,1.02-7.78,1.06-11.71.05-3.93-.33-7.74-1.14-11.43-.81-3.69-2.25-6.96-4.33-9.79h-1.14c-.76,0-1.28.14-1.56.43-1.99,2.27-4.02,5.46-6.1,9.58-2.08,4.12-4,8.71-5.75,13.77-1.75,5.06-3.24,10.39-4.47,15.97-1.23,5.58-2.04,10.91-2.41,15.97-.38,5.06-.26,9.65.35,13.77.61,4.12,1.96,7.26,4.05,9.44,1.14-.85,2.27-1.8,3.41-2.84.94-.95,1.96-2.11,3.05-3.48,1.09-1.37,2.1-3,3.05-4.9-1.7-3.22-3.22-6.1-4.54-8.66-1.14-2.18-2.15-4.23-3.05-6.17-.9-1.94-1.35-3.14-1.35-3.62-.28-.57-.14-.92.43-1.06.57-.14,1.09-.31,1.56-.5.09-.09.38-.28.85-.57.47-.28.99-.57,1.56-.85.57-.28,1.14-.54,1.7-.78.57-.24.99-.4,1.28-.5.76-.28,1.51-.61,2.27-.99.76-.38,1.42-.05,1.99.99.09.57.35,1.33.78,2.27.43.95.85,1.89,1.28,2.84.43.95.8,1.8,1.14,2.55.33.76.5,1.18.5,1.28Z"/>
      <path class="cls-1" d="M481.91,1.8c.76.66,1.11,1.99,1.06,3.97-.05,1.99-.28,4.24-.71,6.74-.43,2.51-.9,5.09-1.42,7.74-.52,2.65-.88,4.88-1.06,6.67-.85,7.19-1.82,14.62-2.91,22.29-1.09,7.67-2.53,14.83-4.33,21.5-1.8,6.67-4.07,12.42-6.81,17.25-2.75,4.83-6.15,7.95-10.22,9.37-1.52,1.42-4.54,2.13-9.08,2.13h-1.7c-.47.28-1.33.45-2.56.5-1.23.05-2.27.07-3.12.07h1.28c-1.7,0-3.31-.38-4.83-1.14-1.52-.76-2.91-1.73-4.19-2.91-1.28-1.18-2.39-2.53-3.34-4.04-.95-1.51-1.7-3.07-2.27-4.68-1.8-4.16-2.98-8.92-3.55-14.27-.57-5.35-.76-10.83-.57-16.47.19-5.63.66-11.19,1.42-16.68.76-5.49,1.58-10.48,2.48-14.98.9-4.49,1.75-8.26,2.55-11.29.8-3.03,1.35-4.92,1.63-5.68.57-1.89,1.25-3.22,2.06-3.97.8-.76,1.75-1.25,2.84-1.49,1.09-.24,2.29-.38,3.62-.43,1.32-.05,2.79-.31,4.4-.78h1.14c.28-.28.57-.45.85-.5.28-.05.71-.07,1.28-.07s1.09.12,1.56.35c.47.24.71.5.71.78.57.76.85,1.63.85,2.63s-.28,2.34-.85,4.04c-3.79,14.01-6.2,25.83-7.24,35.49-1.04,9.65-1.37,17.6-.99,23.85.38,6.25,1.16,11,2.34,14.27,1.18,3.26,2.2,5.51,3.05,6.74,1.89-1.7,3.57-4.07,5.04-7.1,1.47-3.03,2.77-6.48,3.9-10.36,1.14-3.88,2.13-8.04,2.98-12.49.85-4.45,1.58-8.87,2.2-13.27.61-4.4,1.16-8.68,1.63-12.85.47-4.16.9-7.95,1.28-11.36.19-3.97.43-7.36.71-10.15.28-2.79.57-5.04.85-6.74.28-1.61,1.23-2.55,2.84-2.84,1.61-.28,3.17-.43,4.68-.43.47,0,1.11-.02,1.92-.07.8-.05,1.63-.21,2.48-.5.47,0,.97-.09,1.49-.28.52-.19.97-.28,1.35-.28,1.61,0,2.7.57,3.26,1.7Z"/>
      <path class="cls-1" d="M502.06,3.07c.66-.09,1.32-.19,1.99-.28.94-.09,2.03-.33,3.26-.71.85-.47,2.51-.85,4.97-1.14,2.46-.28,5.35-.5,8.66-.64,3.31-.14,6.84-.23,10.58-.28,3.74-.05,7.33-.02,10.79.07,3.45.1,6.58.24,9.37.43,2.79.19,4.85.43,6.17.71.09.19.14.52.14.99s-.07,1.06-.21,1.77c-.14.71-.31,1.68-.5,2.91-.28,1.33-.5,2.32-.64,2.98-.14.66-.26,1.18-.35,1.56-.1.38-.19.69-.28.92-.1.24-.28.54-.57.92-.19,0-.26.17-.21.5.05.33.07.69.07,1.06,0,.47.05.99.14,1.56v.57c0,.19-.05.38-.14.57-.1.19-.19.38-.28.57-.48,0-.73.02-.78.07-.05.05-.07.21-.07.5-.19.28-.35.52-.5.71-.14.19-.88.31-2.2.35-1.33.05-3.5.05-6.53,0-3.03-.05-7.48-.21-13.34-.5h-3.69c-1.42,0-2.84.02-4.26.07-1.42.05-2.65.1-3.69.14-1.04.05-1.61.12-1.7.21,0,.19-.14,1.23-.43,3.12-.28,1.89-.62,3.93-.99,6.1l-1.42,8.8,6.53-.28c.76.19,1.94.26,3.55.21,1.61-.05,3.26-.07,4.97-.07s3.34.02,4.9.07c1.56.05,2.67.21,3.34.5,1.89.47,2.98.92,3.26,1.35.28.43.43.78.43,1.06-.19.19-.31.59-.35,1.21-.05.62-.12,1.33-.21,2.13-.1.81-.14,1.56-.14,2.27v1.49c0,.47-.17.9-.5,1.28-.33.38-.64.76-.92,1.14-.28,0-.45.24-.5.71-.05.47-.07.99-.07,1.56s-.21,1.42-.64,2.55-1.35,1.8-2.77,1.99c-.57.19-1.59.33-3.05.43-1.47.1-3.15.14-5.04.14s-3.83-.02-5.82-.07c-1.99-.05-3.83-.05-5.54,0-1.7.05-3.12.12-4.26.21-1.14.1-1.75.28-1.85.57-.19.47-.55,1.87-1.06,4.19-.52,2.32-1.11,4.8-1.77,7.45-.76,3.12-1.56,6.58-2.41,10.36.09,0,.66.02,1.7.07,1.04.05,2.27.12,3.69.21,1.42.1,2.91.17,4.47.21,1.56.05,2.91.07,4.05.07,1.04.19,2.58.33,4.61.43,2.03.09,4.07.21,6.1.35,2.03.14,3.88.24,5.54.28,1.65.05,2.63.07,2.91.07s.16.35-.35,1.06c-.52.71-.78,1.35-.78,1.92,0,.47-.1,1.42-.28,2.84-.19,1.42-.47,2.6-.85,3.55-.28.85-.47,1.51-.57,1.99-.1.47-.28,1.18-.57,2.13-.47.85-.71,1.61-.71,2.27s-.17,1.23-.5,1.7c-.33.47-.99.83-1.99,1.06-.99.24-2.67.26-5.04.07-2.56,0-5.21-.05-7.95-.14-2.37-.09-4.99-.16-7.88-.21-2.89-.05-5.7-.07-8.45-.07-4.35-.38-8.02-.47-11-.28-2.98.19-4.71.28-5.18.28-.38,0-.76-.09-1.14-.28-.28-.19-.55-.38-.78-.57-.24-.19-.35-.52-.35-.99.19-.28.09-.57-.28-.85-.38-.28-.76-.43-1.14-.43-.19,0-.38-.33-.57-.99-.19-.66-.14-1.47.14-2.41.28-.38.43-.76.43-1.14v-1.14c0-.28.12-.5.35-.64.24-.14.35-.54.35-1.21.85-3.22,1.73-7.03,2.63-11.43.9-4.4,1.82-9.06,2.77-13.98.76-3.22,1.54-6.53,2.34-9.94.8-3.41,1.54-6.86,2.2-10.36.57-3.22,1.11-6.48,1.63-9.79.52-3.31,1.16-6.43,1.92-9.37.38-3.22.76-6.17,1.14-8.87.38-2.7.76-4.99,1.14-6.88.38-1.89.8-3.34,1.28-4.33.47-.99.99-1.44,1.56-1.35Z"/>
      <path class="cls-1" d="M550.47,69.93c0-.28.05-.57.14-.85.19-.57.61-.99,1.28-1.28h3.83c2.65,0,4.9.02,6.74.07,1.85.05,3.76.17,5.75.36,1.23,0,1.8.21,1.7.64-.1.43,0,.78.28,1.06,0,.19.26,1.3.78,3.34.52,2.04,1.21,4.38,2.06,7.03.85,2.65,1.82,5.28,2.91,7.88,1.09,2.6,2.2,4.52,3.34,5.75.28.19,1.32-.21,3.12-1.21,1.8-.99,3.9-2.48,6.32-4.47,2.41-1.99,4.85-4.47,7.31-7.45,2.46-2.98,4.52-6.36,6.17-10.15,1.65-3.78,2.63-7.9,2.91-12.35.28-4.45-.57-9.13-2.56-14.05-.1.09-.19.14-.28.14-.1.1-.21.14-.35.14s-.26.1-.35.28c-.28.19-1.3.85-3.05,1.99-1.75,1.14-3.71,2.37-5.89,3.69-2.18,1.33-4.33,2.53-6.46,3.62-2.13,1.09-3.71,1.63-4.75,1.63-.76,0-1.85.1-3.27.28-1.42.19-2.93.28-4.54.28-1.23-.28-2.41-.45-3.55-.5-1.14-.05-2.27-.07-3.41-.07h-8.09c-.66,0-1.23-.14-1.7-.43-.95-.28-1.89-.9-2.84-1.84-1.14-1.8-1.8-3.57-1.99-5.32-.19-1.75.23-3.74,1.28-5.96,1.04-2.22,2.77-4.87,5.18-7.95,2.41-3.07,5.65-6.84,9.72-11.29,1.42-1.51,3.45-3.45,6.1-5.82,2.65-2.36,5.25-4.68,7.81-6.96,3.03-2.65,6.25-5.39,9.65-8.23.28-.28.66-.57,1.14-.85.47-.19,1.06-.38,1.77-.57.71-.19,1.68-.28,2.91-.28h15.47c1.7,0,3.45.64,5.25,1.92,1.8,1.28,3.26,2.77,4.4,4.47.19,1.04.31,2.13.35,3.26.05,1.14.07,2.13.07,2.98,0,1.99-.26,3.97-.78,5.96-.52,1.99-1.14,3.76-1.85,5.32s-1.37,2.89-1.99,3.97c-.62,1.09-.97,1.68-1.06,1.77-.1,0-.19.05-.28.14-.1.1-.14.43-.14.99,0,.28-.1.43-.28.43s-.28-.14-.28-.43c-.38-.57-.78-.69-1.21-.36-.43.33-.64.64-.64.92h-1.14c-.19,0-.43.12-.71.35-.28.24-.62.36-.99.36-.28,0-.66.07-1.14.21-.47.14-.85.07-1.14-.21-.57-.38-1.51-.73-2.84-1.06-1.33-.33-2.7-.21-4.12.35-.76.38-1.47.43-2.13.14-.66-.28-1.28-.71-1.85-1.28-.47-.28-.73-1.02-.78-2.2-.05-1.18.02-2.15.21-2.91.85-1.42,1.58-2.7,2.2-3.83.61-1.14,1.06-2.7,1.35-4.68,0-.28-.59-.02-1.77.78-1.18.8-2.7,1.96-4.54,3.48-1.85,1.51-3.9,3.34-6.17,5.46s-4.42,4.33-6.46,6.6c-2.04,2.27-3.88,4.59-5.54,6.96-1.66,2.37-2.82,4.54-3.48,6.53l.99-.57c.09-.19.85-.8,2.27-1.84,1.42-1.04,3.15-2.15,5.18-3.34,2.03-1.18,4.31-2.25,6.81-3.19,2.51-.94,4.99-1.42,7.45-1.42,5.2.28,9.37.52,12.49.71,3.12.19,5.68.71,7.67,1.56,3.12,1.14,5.58,3.38,7.38,6.74,1.8,3.36,2.55,8.35,2.27,14.98-.28,3.69-1.21,7.62-2.77,11.78-1.56,4.17-3.79,8.14-6.67,11.92-2.89,3.79-6.41,7.19-10.58,10.22-4.17,3.03-8.94,5.25-14.34,6.67-.85.38-1.89.61-3.12.71-1.14.19-2.58.24-4.33.14-1.75-.09-4-.38-6.74-.85-.76-.19-1.66-.31-2.7-.35-1.04-.05-2.08-.12-3.12-.21-1.14-.09-2.32-.14-3.55-.14-2.27-.09-4.5-1.18-6.67-3.26-1.89-1.8-3.83-4.75-5.82-8.87-1.99-4.12-3.74-10.15-5.25-18.1Z"/>
    </g>
  </g>
</svg>