<svg width="340" height="95" viewBox="0 0 340 95" fill="none" xmlns="http://www.w3.org/2000/svg">
<rect width="340" height="95" rx="12" fill="#F8F8F8"/>
<path d="M147.5 56V53.2L147.375 52.675V47.9C147.375 46.8833 147.075 46.1 146.475 45.55C145.892 44.9833 145.008 44.7 143.825 44.7C143.042 44.7 142.275 44.8333 141.525 45.1C140.775 45.35 140.142 45.6917 139.625 46.125L138.625 44.325C139.308 43.775 140.125 43.3583 141.075 43.075C142.042 42.775 143.05 42.625 144.1 42.625C145.917 42.625 147.317 43.0667 148.3 43.95C149.283 44.8333 149.775 46.1833 149.775 48V56H147.5ZM143.15 56.15C142.167 56.15 141.3 55.9833 140.55 55.65C139.817 55.3167 139.25 54.8583 138.85 54.275C138.45 53.675 138.25 53 138.25 52.25C138.25 51.5333 138.417 50.8833 138.75 50.3C139.1 49.7167 139.658 49.25 140.425 48.9C141.208 48.55 142.258 48.375 143.575 48.375H147.775V50.1H143.675C142.475 50.1 141.667 50.3 141.25 50.7C140.833 51.1 140.625 51.5833 140.625 52.15C140.625 52.8 140.883 53.325 141.4 53.725C141.917 54.1083 142.633 54.3 143.55 54.3C144.45 54.3 145.233 54.1 145.9 53.7C146.583 53.3 147.075 52.7167 147.375 51.95L147.85 53.6C147.533 54.3833 146.975 55.0083 146.175 55.475C145.375 55.925 144.367 56.15 143.15 56.15ZM154.216 56V37.45H156.616V56H154.216ZM161.549 56V41.575C161.549 40.275 161.924 39.2417 162.674 38.475C163.44 37.6917 164.524 37.3 165.924 37.3C166.44 37.3 166.932 37.3667 167.399 37.5C167.882 37.6167 168.29 37.8083 168.624 38.075L167.899 39.9C167.649 39.7 167.365 39.55 167.049 39.45C166.732 39.3333 166.399 39.275 166.049 39.275C165.349 39.275 164.815 39.475 164.449 39.875C164.082 40.2583 163.899 40.8333 163.899 41.6V43.375L163.949 44.475V56H161.549ZM159.299 44.725V42.75H167.749V44.725H159.299ZM177.993 56V53.2L177.868 52.675V47.9C177.868 46.8833 177.568 46.1 176.968 45.55C176.385 44.9833 175.501 44.7 174.318 44.7C173.535 44.7 172.768 44.8333 172.018 45.1C171.268 45.35 170.635 45.6917 170.118 46.125L169.118 44.325C169.801 43.775 170.618 43.3583 171.568 43.075C172.535 42.775 173.543 42.625 174.593 42.625C176.41 42.625 177.81 43.0667 178.793 43.95C179.776 44.8333 180.268 46.1833 180.268 48V56H177.993ZM173.643 56.15C172.66 56.15 171.793 55.9833 171.043 55.65C170.31 55.3167 169.743 54.8583 169.343 54.275C168.943 53.675 168.743 53 168.743 52.25C168.743 51.5333 168.91 50.8833 169.243 50.3C169.593 49.7167 170.151 49.25 170.918 48.9C171.701 48.55 172.751 48.375 174.068 48.375H178.268V50.1H174.168C172.968 50.1 172.16 50.3 171.743 50.7C171.326 51.1 171.118 51.5833 171.118 52.15C171.118 52.8 171.376 53.325 171.893 53.725C172.41 54.1083 173.126 54.3 174.043 54.3C174.943 54.3 175.726 54.1 176.393 53.7C177.076 53.3 177.568 52.7167 177.868 51.95L178.343 53.6C178.026 54.3833 177.468 55.0083 176.668 55.475C175.868 55.925 174.86 56.15 173.643 56.15ZM190.61 56.15C189.193 56.15 187.943 55.8583 186.86 55.275C185.793 54.6917 184.96 53.8917 184.36 52.875C183.776 51.8583 183.485 50.6917 183.485 49.375C183.485 48.0583 183.768 46.8917 184.335 45.875C184.918 44.8583 185.71 44.0667 186.71 43.5C187.726 42.9167 188.868 42.625 190.135 42.625C191.418 42.625 192.551 42.9083 193.535 43.475C194.518 44.0417 195.285 44.8417 195.835 45.875C196.401 46.8917 196.685 48.0833 196.685 49.45C196.685 49.55 196.676 49.6667 196.66 49.8C196.66 49.9333 196.651 50.0583 196.635 50.175H185.36V48.45H195.385L194.41 49.05C194.426 48.2 194.251 47.4417 193.885 46.775C193.518 46.1083 193.01 45.5917 192.36 45.225C191.726 44.8417 190.985 44.65 190.135 44.65C189.301 44.65 188.56 44.8417 187.91 45.225C187.26 45.5917 186.751 46.1167 186.385 46.8C186.018 47.4667 185.835 48.2333 185.835 49.1V49.5C185.835 50.3833 186.035 51.175 186.435 51.875C186.851 52.5583 187.426 53.0917 188.16 53.475C188.893 53.8583 189.735 54.05 190.685 54.05C191.468 54.05 192.176 53.9167 192.81 53.65C193.46 53.3833 194.026 52.9833 194.51 52.45L195.835 54C195.235 54.7 194.485 55.2333 193.585 55.6C192.701 55.9667 191.71 56.15 190.61 56.15ZM198.317 61C197.767 61 197.242 60.9333 196.742 60.8C196.226 60.6667 195.792 60.4667 195.442 60.2L196.217 58.35C196.717 58.7667 197.367 58.975 198.167 58.975C198.801 58.975 199.284 58.775 199.617 58.375C199.967 57.9917 200.142 57.4167 200.142 56.65V42.75H202.542V56.6C202.542 57.95 202.176 59.0167 201.442 59.8C200.726 60.6 199.684 61 198.317 61ZM201.342 40.2C200.876 40.2 200.484 40.05 200.167 39.75C199.867 39.45 199.717 39.0833 199.717 38.65C199.717 38.2 199.867 37.825 200.167 37.525C200.484 37.225 200.876 37.075 201.342 37.075C201.809 37.075 202.192 37.225 202.492 37.525C202.809 37.8083 202.967 38.1667 202.967 38.6C202.967 39.05 202.817 39.4333 202.517 39.75C202.217 40.05 201.826 40.2 201.342 40.2ZM215.347 56V53.2L215.222 52.675V47.9C215.222 46.8833 214.922 46.1 214.322 45.55C213.738 44.9833 212.855 44.7 211.672 44.7C210.888 44.7 210.122 44.8333 209.372 45.1C208.622 45.35 207.988 45.6917 207.472 46.125L206.472 44.325C207.155 43.775 207.972 43.3583 208.922 43.075C209.888 42.775 210.897 42.625 211.947 42.625C213.763 42.625 215.163 43.0667 216.147 43.95C217.13 44.8333 217.622 46.1833 217.622 48V56H215.347ZM210.997 56.15C210.013 56.15 209.147 55.9833 208.397 55.65C207.663 55.3167 207.097 54.8583 206.697 54.275C206.297 53.675 206.097 53 206.097 52.25C206.097 51.5333 206.263 50.8833 206.597 50.3C206.947 49.7167 207.505 49.25 208.272 48.9C209.055 48.55 210.105 48.375 211.422 48.375H215.622V50.1H211.522C210.322 50.1 209.513 50.3 209.097 50.7C208.68 51.1 208.472 51.5833 208.472 52.15C208.472 52.8 208.73 53.325 209.247 53.725C209.763 54.1083 210.48 54.3 211.397 54.3C212.297 54.3 213.08 54.1 213.747 53.7C214.43 53.3 214.922 52.7167 215.222 51.95L215.697 53.6C215.38 54.3833 214.822 55.0083 214.022 55.475C213.222 55.925 212.213 56.15 210.997 56.15ZM229.088 56.15C227.955 56.15 226.93 55.9 226.013 55.4C225.113 54.8833 224.396 54.125 223.863 53.125C223.346 52.125 223.088 50.875 223.088 49.375C223.088 47.875 223.355 46.625 223.888 45.625C224.438 44.625 225.163 43.875 226.063 43.375C226.98 42.875 227.988 42.625 229.088 42.625C230.388 42.625 231.538 42.9083 232.538 43.475C233.538 44.0417 234.33 44.8333 234.913 45.85C235.496 46.85 235.788 48.025 235.788 49.375C235.788 50.725 235.496 51.9083 234.913 52.925C234.33 53.9417 233.538 54.7333 232.538 55.3C231.538 55.8667 230.388 56.15 229.088 56.15ZM222.063 56V37.45H224.463V46.275L224.213 49.35L224.363 52.425V56H222.063ZM228.888 54.05C229.738 54.05 230.496 53.8583 231.163 53.475C231.846 53.0917 232.38 52.55 232.763 51.85C233.163 51.1333 233.363 50.3083 233.363 49.375C233.363 48.425 233.163 47.6083 232.763 46.925C232.38 46.225 231.846 45.6833 231.163 45.3C230.496 44.9167 229.738 44.725 228.888 44.725C228.055 44.725 227.296 44.9167 226.613 45.3C225.946 45.6833 225.413 46.225 225.013 46.925C224.63 47.6083 224.438 48.425 224.438 49.375C224.438 50.3083 224.63 51.1333 225.013 51.85C225.413 52.55 225.946 53.0917 226.613 53.475C227.296 53.8583 228.055 54.05 228.888 54.05ZM239.104 56V42.75H241.404V46.35L241.179 45.45C241.546 44.5333 242.162 43.8333 243.029 43.35C243.896 42.8667 244.962 42.625 246.229 42.625V44.95C246.129 44.9333 246.029 44.925 245.929 44.925C245.846 44.925 245.762 44.925 245.679 44.925C244.396 44.925 243.379 45.3083 242.629 46.075C241.879 46.8417 241.504 47.95 241.504 49.4V56H239.104ZM256.436 56V53.2L256.311 52.675V47.9C256.311 46.8833 256.011 46.1 255.411 45.55C254.827 44.9833 253.944 44.7 252.761 44.7C251.977 44.7 251.211 44.8333 250.461 45.1C249.711 45.35 249.077 45.6917 248.561 46.125L247.561 44.325C248.244 43.775 249.061 43.3583 250.011 43.075C250.977 42.775 251.986 42.625 253.036 42.625C254.852 42.625 256.252 43.0667 257.236 43.95C258.219 44.8333 258.711 46.1833 258.711 48V56H256.436ZM252.086 56.15C251.102 56.15 250.236 55.9833 249.486 55.65C248.752 55.3167 248.186 54.8583 247.786 54.275C247.386 53.675 247.186 53 247.186 52.25C247.186 51.5333 247.352 50.8833 247.686 50.3C248.036 49.7167 248.594 49.25 249.361 48.9C250.144 48.55 251.194 48.375 252.511 48.375H256.711V50.1H252.611C251.411 50.1 250.602 50.3 250.186 50.7C249.769 51.1 249.561 51.5833 249.561 52.15C249.561 52.8 249.819 53.325 250.336 53.725C250.852 54.1083 251.569 54.3 252.486 54.3C253.386 54.3 254.169 54.1 254.836 53.7C255.519 53.3 256.011 52.7167 256.311 51.95L256.786 53.6C256.469 54.3833 255.911 55.0083 255.111 55.475C254.311 55.925 253.302 56.15 252.086 56.15ZM266.952 56.15C265.852 56.15 264.802 56 263.802 55.7C262.819 55.4 262.044 55.0333 261.477 54.6L262.477 52.7C263.044 53.0833 263.744 53.4083 264.577 53.675C265.41 53.9417 266.26 54.075 267.127 54.075C268.244 54.075 269.044 53.9167 269.527 53.6C270.027 53.2833 270.277 52.8417 270.277 52.275C270.277 51.8583 270.127 51.5333 269.827 51.3C269.527 51.0667 269.127 50.8917 268.627 50.775C268.144 50.6583 267.602 50.5583 267.002 50.475C266.402 50.375 265.802 50.2583 265.202 50.125C264.602 49.975 264.052 49.775 263.552 49.525C263.052 49.2583 262.652 48.9 262.352 48.45C262.052 47.9833 261.902 47.3667 261.902 46.6C261.902 45.8 262.127 45.1 262.577 44.5C263.027 43.9 263.66 43.4417 264.477 43.125C265.31 42.7917 266.294 42.625 267.427 42.625C268.294 42.625 269.169 42.7333 270.052 42.95C270.952 43.15 271.685 43.4417 272.252 43.825L271.227 45.725C270.627 45.325 270.002 45.05 269.352 44.9C268.702 44.75 268.052 44.675 267.402 44.675C266.352 44.675 265.569 44.85 265.052 45.2C264.535 45.5333 264.277 45.9667 264.277 46.5C264.277 46.95 264.427 47.3 264.727 47.55C265.044 47.7833 265.444 47.9667 265.927 48.1C266.427 48.2333 266.977 48.35 267.577 48.45C268.177 48.5333 268.777 48.65 269.377 48.8C269.977 48.9333 270.519 49.125 271.002 49.375C271.502 49.625 271.902 49.975 272.202 50.425C272.519 50.875 272.677 51.475 272.677 52.225C272.677 53.025 272.444 53.7167 271.977 54.3C271.51 54.8833 270.852 55.3417 270.002 55.675C269.152 55.9917 268.135 56.15 266.952 56.15ZM275.676 56V42.75H278.076V56H275.676ZM276.876 40.2C276.41 40.2 276.018 40.05 275.701 39.75C275.401 39.45 275.251 39.0833 275.251 38.65C275.251 38.2 275.401 37.825 275.701 37.525C276.018 37.225 276.41 37.075 276.876 37.075C277.343 37.075 277.726 37.225 278.026 37.525C278.343 37.8083 278.501 38.1667 278.501 38.6C278.501 39.05 278.351 39.4333 278.051 39.75C277.751 40.05 277.36 40.2 276.876 40.2ZM282.659 56V37.45H285.059V56H282.659Z" fill="#9602C7"/>
<path fill-rule="evenodd" clip-rule="evenodd" d="M87 25C83.1223 25 78.6 25.0856 74.1916 25.2018L74.0126 25.2079C69.5261 25.3271 65.9056 25.4219 63.0535 25.8652C60.0809 26.3268 57.613 27.2103 55.64 29.1149C53.6605 31.0256 52.7977 33.3888 52.3907 36.2166C52 38.9375 52 42.3859 52 46.672V51.3311C52 55.611 52 59.0595 52.3907 61.7834C52.7944 64.6112 53.6605 66.9744 55.64 68.8851C57.613 70.7928 60.0809 71.6732 63.0535 72.1348C65.9056 72.5781 69.5261 72.6729 74.0126 72.7921L74.1916 72.7982C78.6033 72.9144 83.1223 73 87 73C90.8777 73 95.4 72.9144 99.8084 72.7982L99.9875 72.7921C104.474 72.6729 108.094 72.5781 110.947 72.1348C113.919 71.6732 116.387 70.7897 118.36 68.8851C120.34 66.9744 121.206 64.6112 121.609 61.7834C122 59.0625 122 55.6141 122 51.328V46.6689C122 42.3859 122 38.9375 121.609 36.2166C121.206 33.3888 120.34 31.0256 118.36 29.1149C116.387 27.2072 113.919 26.3268 110.947 25.8652C108.094 25.4219 104.474 25.3271 99.9842 25.2079L99.8084 25.2018C95.5401 25.0801 91.2702 25.0129 87 25ZM83.3275 57.1029C82.9561 57.3021 82.5357 57.4062 82.108 57.4048C81.6804 57.4035 81.2607 57.2967 80.8908 57.0952C80.521 56.8937 80.2139 56.6045 80.0005 56.2566C79.787 55.9087 79.6746 55.5143 79.6744 55.1127V42.8842C79.6746 42.4827 79.787 42.0882 80.0005 41.7403C80.2139 41.3924 80.521 41.1033 80.8908 40.9018C81.2607 40.7002 81.6804 40.5935 82.108 40.5921C82.5357 40.5908 82.9561 40.6949 83.3275 40.894L94.7228 47.0083C95.0963 47.2089 95.4067 47.4986 95.6226 47.8481C95.8384 48.1976 95.9521 48.5945 95.9521 48.9985C95.9521 49.4025 95.8384 49.7993 95.6226 50.1488C95.4067 50.4983 95.0963 50.788 94.7228 50.9887L83.3275 57.1029Z" fill="#9602C7"/>
</svg>
